<svg xmlns="http://www.w3.org/2000/svg" viewBox="0 0 512 512">
  <defs>
    <linearGradient id="bg" x1="0%" y1="0%" x2="100%" y2="100%">
      <stop offset="0%" style="stop-color:#4F46E5"/>
      <stop offset="100%" style="stop-color:#7C3AED"/>
    </linearGradient>
  </defs>
  <!-- Background rounded square -->
  <rect x="32" y="32" width="448" height="448" rx="80" ry="80" fill="url(#bg)"/>
  <!-- Rocket/Launch icon -->
  <g fill="white">
    <!-- Main rocket body -->
    <path d="M256 96c-48 0-96 64-96 160 0 48 16 80 32 104l64 56 64-56c16-24 32-56 32-104 0-96-48-160-96-160z" opacity="0.95"/>
    <!-- Rocket window -->
    <circle cx="256" cy="200" r="32" fill="#4F46E5"/>
    <!-- Left fin -->
    <path d="M160 320c-32 16-48 48-48 80l48-32v-48z" opacity="0.9"/>
    <!-- Right fin -->
    <path d="M352 320c32 16 48 48 48 80l-48-32v-48z" opacity="0.9"/>
    <!-- Flame -->
    <ellipse cx="256" cy="416" rx="24" ry="40" fill="#FCD34D"/>
    <ellipse cx="256" cy="408" rx="16" ry="28" fill="#FB923C"/>
    <ellipse cx="256" cy="400" rx="8" ry="16" fill="#F87171"/>
  </g>
</svg>
